<?xml version="1.0" encoding="utf-8"?>
<!-- Generator: Adobe Illustrator 19.0.0, SVG Export Plug-In . SVG Version: 6.00 Build 0)  -->
<svg version="1.1" id="Layer_1" xmlns="http://www.w3.org/2000/svg" xmlns:xlink="http://www.w3.org/1999/xlink" x="0px" y="0px"
	 viewBox="0 0 35.5 36" style="enable-background:new 0 0 35.5 36;" xml:space="preserve">
<style type="text/css">
	.st0{fill:#2C368A;}
	.st1{fill:#00B0DF;}
</style>
<g>
	<path class="st0" d="M19.7,22.7c4.1,0,7.4-3.3,7.4-7.4c0-4.1-3.3-7.4-7.4-7.4c-4.1,0-7.4,3.3-7.4,7.4
		C12.3,19.4,15.6,22.7,19.7,22.7L19.7,22.7z M19.7,22.7"/>
	<path class="st0" d="M13.4,24.2c-2.8,0-5.1,2.3-5.1,5.1V35c0,0.5,0.4,1,1,1h20.8c0.5,0,1-0.4,1-1v-5.6c0.1-0.1,0.2-0.3,0.2-0.5
		l4-10.7c0.1-0.4,0.2-0.7,0.2-1.1v-12c0-1.7-1.4-3.2-3.2-3.2c-1.7,0-3.2,1.4-3.2,3.2v11.4l-2.9,7.6H13.4z M13.4,24.2"/>
	<g>
		<path class="st1" d="M1,7h2.3c0.5,0,0.9-0.4,1-0.8c0.1-0.9,0.4-1.5,0.8-1.9C5.5,3.9,6,3.7,6.7,3.7c0.7,0,1.3,0.2,1.7,0.6
			C8.8,4.8,9,5.2,9,5.9c0,0.3-0.1,0.6-0.2,0.9C8.7,6.9,8.4,7.3,7.3,8.3c-1,0.9-1.7,1.7-2.1,2.5c-0.4,0.8-0.6,2-0.6,3.7
			c0,0.5,0.4,1,1,1h2.1c0.5,0,1-0.4,1-1c0-1.3,0.2-1.8,0.2-2c0.1-0.2,0.4-0.6,1.5-1.6c1.1-0.9,1.8-1.7,2.2-2.5
			c0.4-0.8,0.6-1.7,0.6-2.6c0-1.7-0.6-3.1-1.9-4.2C10.2,0.5,8.6,0,6.7,0C4.8,0,3.3,0.5,2.1,1.6C0.9,2.7,0.2,4.2,0,6
			C-0.1,6.5,0.4,7,1,7L1,7z M1,7"/>
		<path class="st1" d="M7.6,21.1c0.5,0,1-0.4,1-1V18c0-0.5-0.4-1-1-1H5.5c-0.5,0-1,0.4-1,1v2.1c0,0.5,0.4,1,1,1H7.6z M7.6,21.1"/>
	</g>
</g>
</svg>
