<?xml version="1.0" encoding="utf-8"?>
<!-- Generator: Adobe Illustrator 19.0.0, SVG Export Plug-In . SVG Version: 6.00 Build 0)  -->
<svg version="1.1" id="Layer_1" xmlns="http://www.w3.org/2000/svg" xmlns:xlink="http://www.w3.org/1999/xlink" x="0px" y="0px"
	 viewBox="0 0 36 36" style="enable-background:new 0 0 36 36;" xml:space="preserve">
<style type="text/css">
	.st0{fill:#00AFDD;}
	.st1{fill:#2C3589;}
</style>
<g>
	<g>
		<path class="st0" d="M19.2,3.4V1.1C19.2,0.5,18.7,0,18,0c-0.7,0-1.2,0.5-1.2,1.1v2.3c0,0.6,0.5,1.1,1.2,1.1
			C18.7,4.5,19.2,4,19.2,3.4"/>
		<path class="st0" d="M3.6,15.8H1.2c-0.7,0-1.2,0.5-1.2,1.1C0,17.5,0.5,18,1.2,18h2.4c0.7,0,1.2-0.5,1.2-1.1
			C4.8,16.3,4.3,15.8,3.6,15.8"/>
		<path class="st0" d="M34.8,15.8h-2.4c-0.7,0-1.2,0.5-1.2,1.1c0,0.6,0.5,1.1,1.2,1.1h2.4c0.7,0,1.2-0.5,1.2-1.1
			C36,16.3,35.5,15.8,34.8,15.8"/>
		<path class="st0" d="M29,4.9l-1.7,1.6c-0.5,0.4-0.5,1.2,0,1.6c0.5,0.4,1.2,0.4,1.7,0l1.7-1.6c0.5-0.4,0.5-1.2,0-1.6
			C30.3,4.5,29.5,4.5,29,4.9"/>
		<path class="st0" d="M5.3,6.5L7,8.1c0.5,0.4,1.2,0.4,1.7,0c0.5-0.4,0.5-1.2,0-1.6L7,4.9c-0.5-0.4-1.2-0.4-1.7,0
			C4.8,5.4,4.8,6.1,5.3,6.5"/>
	</g>
	<path class="st0" d="M18,7.9c-5.3,0-9.6,4-9.6,9v13.5h19.2V16.9C27.6,11.9,23.3,7.9,18,7.9L18,7.9z M22.8,18
		c-0.7,0-1.2-0.5-1.2-1.1c0-1.9-1.6-3.4-3.6-3.4c-0.7,0-1.2-0.5-1.2-1.1c0-0.6,0.5-1.1,1.2-1.1c3.3,0,6,2.5,6,5.6
		C24,17.5,23.5,18,22.8,18L22.8,18z M22.8,18"/>
	<path class="st1" d="M30,29.3h-1.2V16.9C28.8,11.3,24,6.8,18,6.8c-6,0-10.8,4.5-10.8,10.1v12.4H6c-2,0-3.6,1.5-3.6,3.4v2.2
		c0,0.3,0.1,0.6,0.4,0.8C3,35.9,3.3,36,3.6,36h28.8c0.3,0,0.6-0.1,0.8-0.3c0.2-0.2,0.4-0.5,0.4-0.8v-2.2C33.6,30.8,32,29.3,30,29.3
		L30,29.3z M9.6,16.9c0-2.2,0.9-4.1,2.5-5.6C13.6,9.9,15.7,9,18,9c2.3,0,4.4,0.9,5.9,2.3c1.5,1.4,2.5,3.4,2.5,5.6v12.4H9.6V16.9z
		 M31.2,33.8H4.8v-1.1c0-0.6,0.5-1.1,1.2-1.1h24c0.7,0,1.2,0.5,1.2,1.1V33.8z M31.2,33.8"/>
</g>
</svg>
