<?xml version="1.0" encoding="utf-8"?>
<!-- Generator: Adobe Illustrator 19.0.0, SVG Export Plug-In . SVG Version: 6.00 Build 0)  -->
<svg version="1.1" id="Layer_1" xmlns="http://www.w3.org/2000/svg" xmlns:xlink="http://www.w3.org/1999/xlink" x="0px" y="0px"
	 viewBox="0 0 36 36" style="enable-background:new 0 0 36 36;" xml:space="preserve">
<style type="text/css">
	.st0{fill:#2C368A;}
	.st1{fill:#00B0DF;}
</style>
<path class="st0" d="M9.4,21.5c0-3,1.2-5.8,3.4-7.9c1.9-1.8,4.3-3,7-3.2c-2-3.5-4.5-7.1-6.1-9.3c-0.4-0.6-1.1-1-1.9-1
	C11,0,10.3,0.4,9.8,1C6.5,5.6,0,15.1,0,19.8c0,6.3,5.3,11.4,11.8,11.4c1,0,2-0.1,2.9-0.4c-0.7-0.4-1.3-0.9-1.9-1.5
	C10.6,27.3,9.4,24.5,9.4,21.5L9.4,21.5z M7.6,26.3c-0.3,0.4-0.8,0.6-1.3,0.6c-0.4,0-0.7-0.1-1.1-0.4c-4.6-3.8-3-9.4-3-9.6
	c0.3-0.8,1.2-1.3,2-1.1c0.9,0.2,1.4,1.1,1.1,2c-0.1,0.2-1.1,3.9,1.9,6.3C8.1,24.6,8.2,25.6,7.6,26.3L7.6,26.3z M7.6,26.3"/>
<path class="st1" d="M35.5,31.5l-3.7-3.6c-0.6-0.6-1.5-0.6-2.1,0l-1-1c2.7-3.6,2.4-8.7-1-12c-1.8-1.7-4.2-2.7-6.7-2.7
	s-4.9,1-6.7,2.7c-1.8,1.7-2.8,4.1-2.8,6.5c0,2.5,1,4.8,2.8,6.5c1.8,1.7,4.2,2.7,6.7,2.7c2,0,4-0.6,5.6-1.8l1,1c-0.6,0.6-0.6,1.5,0,2
	l3.7,3.6c0.6,0.6,1.6,0.6,2.2,0l1.9-1.9c0.3-0.3,0.5-0.7,0.5-1.1S35.8,31.8,35.5,31.5L35.5,31.5z M25.7,26c-1.2,1.2-2.9,1.9-4.7,1.9
	c-1.8,0-3.4-0.7-4.6-1.9c-1.2-1.2-1.9-2.8-1.9-4.5c0-1.1,0.3-2.1,0.8-3c0.3-0.5,0.7-1,1.1-1.5c0.1-0.1,0.1-0.1,0.2-0.2
	c1.2-1.1,2.8-1.7,4.4-1.7c1.8,0,3.4,0.7,4.7,1.9c0.2,0.2,0.4,0.5,0.6,0.7C28.2,20.2,28,23.7,25.7,26L25.7,26z M25.7,26"/>
</svg>
