<?xml version="1.0" encoding="utf-8"?>
<!-- Generator: Adobe Illustrator 19.0.0, SVG Export Plug-In . SVG Version: 6.00 Build 0)  -->
<svg version="1.1" id="Layer_1" xmlns="http://www.w3.org/2000/svg" xmlns:xlink="http://www.w3.org/1999/xlink" x="0px" y="0px"
	 viewBox="0 0 36 36" style="enable-background:new 0 0 36 36;" xml:space="preserve">
<style type="text/css">
	.st0{fill:#2C368A;}
	.st1{fill:#00B0DF;}
</style>
<g>
	<path class="st0" d="M12.9,34.2c0.7,0.7,2.3,1.8,4.1,1.8c6.1,0,7.5-4.5,7.7-8.1c0.5-5.2,1.8-5,2.5-5c1.6,0,2,0.9,2,2.5
		c-1.4,0.9-2.3,2.3-2.3,3.8c0,2.5,2,4.5,4.5,4.5c2.5,0,4.5-2,4.5-4.5c0-2.5-2-4.5-4.5-4.5H31c-0.5-2-1.6-4.1-4.1-4.1
		c-3.6,0-4.5,3.2-4.8,6.5c-0.2,4.7-1.8,6.5-5.2,6.5c-0.9,0-1.8-0.4-2.3-0.9c-1.4-1.1-1.1-5.2-1.1-5.2c4.5,0,9.1-4.1,10.6-10.8
		l-0.5-0.2c0.7-2.7,1.1-5.9,1.1-8.1c0-2.5-0.7-4.3-2.3-5.6c-1.6-1.3-3.4-1.8-4.8-1.8c-0.5-0.7-1.1-1.1-2-1.1c-1.1,0-2.3,0.9-2.3,2.3
		c0,1.3,0.9,2.3,2.3,2.3c0.9,0,1.6-0.5,1.8-1.1c1.1,0,2.3,0.4,3.4,1.4c1.1,0.9,1.6,2,1.6,3.8c0,2-0.5,5-1.1,7.9l-0.5-0.2
		c-0.7,2.5-3,8.1-7.5,8.1h-2.3c-4.5,0-6.8-5.6-7.5-8.1l-0.5,0.2c-0.7-2.9-1.1-5.8-1.1-7.9c0-1.8,0.5-2.9,1.6-3.8
		c0.9-0.9,2.3-1.1,3.4-1.4c0.2,0.7,0.9,1.1,1.8,1.1c1.4,0,2.3-0.9,2.3-2.3c0-1.4-0.9-2.3-2.3-2.3C8.1,0,7.5,0.4,7,1.1
		c-1.4,0-3.2,0.5-4.8,1.8C0.7,4.3,0,6.1,0,8.5c0,2.3,0.5,5.4,1.1,8.3l-0.5,0.2c1.6,6.5,6.1,10.6,10.6,10.6
		C11.3,27.7,11.1,32.6,12.9,34.2L12.9,34.2z"/>
	<path class="st1" d="M31.7,31.5c-1.4,0-2.3-0.9-2.3-2.3c0-1.3,0.9-2.2,2.3-2.2c1.4,0,2.3,0.9,2.3,2.2C34,30.6,32.8,31.5,31.7,31.5
		L31.7,31.5z"/>
	<path class="st0" d="M31.7,31.5"/>
</g>
</svg>
