<?xml version="1.0" encoding="iso-8859-1"?>
<!-- Generator: Adobe Illustrator 19.0.0, SVG Export Plug-In . SVG Version: 6.00 Build 0)  -->
<svg version="1.1" id="Layer_1" xmlns="http://www.w3.org/2000/svg" xmlns:xlink="http://www.w3.org/1999/xlink" x="0px" y="0px"
	 viewBox="0 0 36 30" style="enable-background:new 0 0 36 30;" xml:space="preserve">
<g>
	<path id="XMLID_24_" style="fill:#E4E9F6;" d="M31.687,8.4H0.633c-0.35,0-0.634-0.269-0.634-0.6V0.6c0-0.331,0.284-0.6,0.634-0.6
		h31.054c0.35,0,0.634,0.269,0.634,0.6v7.2C32.321,8.131,32.037,8.4,31.687,8.4z"/>
	<path id="XMLID_23_" style="fill:#2B3789;" d="M7.604,8.4H0.633c-0.35,0-0.634-0.269-0.634-0.6V0.6c0-0.331,0.284-0.6,0.634-0.6
		h6.971c0.35,0,0.634,0.269,0.634,0.6v7.2C8.238,8.131,7.954,8.4,7.604,8.4z"/>
	<path id="XMLID_22_" style="fill:#717588;" d="M21.547,3.6H10.773c-0.35,0-0.634-0.268-0.634-0.6s0.283-0.6,0.634-0.6h10.774
		c0.35,0,0.634,0.268,0.634,0.6S21.897,3.6,21.547,3.6z"/>
	<g>
		<path id="XMLID_21_" style="fill:#7F8499;" d="M29.152,6H17.111c-0.35,0-0.634-0.268-0.634-0.6c0-0.332,0.283-0.6,0.634-0.6
			h12.041c0.35,0,0.634,0.268,0.634,0.6C29.786,5.732,29.502,6,29.152,6z"/>
		<path id="XMLID_20_" style="fill:#7F8499;" d="M14.575,6h-3.803c-0.35,0-0.634-0.268-0.634-0.6c0-0.332,0.283-0.6,0.634-0.6h3.803
			c0.35,0,0.634,0.268,0.634,0.6C15.209,5.732,14.926,6,14.575,6z"/>
	</g>
	<g>
		<path id="XMLID_19_" style="fill:#FFFFFF;" d="M4.118,5.4c-0.35,0-0.634-0.268-0.634-0.6c0-0.332,0.283-0.6,0.634-0.6
			c0.524,0,0.951-0.403,0.951-0.9s-0.426-0.9-0.951-0.9c-0.524,0-0.951,0.403-0.951,0.9c0,0.331-0.283,0.6-0.634,0.6
			s-0.634-0.268-0.634-0.6c0-1.158,0.995-2.1,2.218-2.1s2.218,0.942,2.218,2.1C6.337,4.458,5.341,5.4,4.118,5.4z"/>
		<path id="XMLID_18_" style="fill:#FFFFFF;" d="M4.125,7.201c-0.35,0-0.637-0.268-0.637-0.6c0-0.332,0.28-0.6,0.631-0.6h0.006
			c0.35,0,0.634,0.268,0.634,0.6C4.759,6.933,4.475,7.201,4.125,7.201z"/>
	</g>
	<path id="XMLID_17_" style="fill:#E4E9F6;" d="M31.687,19.201H0.633c-0.35,0-0.634-0.269-0.634-0.6v-7.2
		c0-0.331,0.284-0.6,0.634-0.6h31.054c0.35,0,0.634,0.269,0.634,0.6v7.2C32.321,18.932,32.037,19.201,31.687,19.201z"/>
	<path id="XMLID_16_" style="fill:#2B3789;" d="M7.604,19.201H0.633c-0.35,0-0.634-0.269-0.634-0.6v-7.2
		c0-0.331,0.284-0.6,0.634-0.6h6.971c0.35,0,0.634,0.269,0.634,0.6v7.2C8.238,18.932,7.954,19.201,7.604,19.201z"/>
	<path id="XMLID_15_" style="fill:#717588;" d="M21.547,14.401H10.773c-0.35,0-0.634-0.268-0.634-0.6c0-0.332,0.283-0.6,0.634-0.6
		h10.774c0.35,0,0.634,0.268,0.634,0.6C22.181,14.133,21.897,14.401,21.547,14.401z"/>
	<path id="XMLID_14_" style="fill:#7F8499;" d="M14.575,16.801h-3.803c-0.35,0-0.634-0.268-0.634-0.6c0-0.332,0.283-0.6,0.634-0.6
		h3.803c0.35,0,0.634,0.268,0.634,0.6C15.209,16.533,14.926,16.801,14.575,16.801z"/>
	<g>
		<path id="XMLID_13_" style="fill:#FFFFFF;" d="M4.118,16.2c-0.35,0-0.634-0.268-0.634-0.6c0-0.332,0.283-0.6,0.634-0.6
			c0.524,0,0.951-0.403,0.951-0.9s-0.426-0.9-0.951-0.9c-0.524,0-0.951,0.403-0.951,0.9c0,0.331-0.283,0.6-0.634,0.6
			s-0.634-0.268-0.634-0.6c0-1.158,0.995-2.1,2.218-2.1s2.218,0.942,2.218,2.1S5.341,16.2,4.118,16.2z"/>
		<path id="XMLID_12_" style="fill:#FFFFFF;" d="M4.125,18c-0.35,0-0.637-0.268-0.637-0.6s0.28-0.6,0.631-0.6h0.006
			c0.35,0,0.634,0.268,0.634,0.6S4.475,18,4.125,18z"/>
	</g>
	<path id="XMLID_11_" style="fill:#E4E9F6;" d="M31.687,30H0.633c-0.35,0-0.634-0.269-0.634-0.6v-7.2c0-0.331,0.284-0.6,0.634-0.6
		h31.054c0.35,0,0.634,0.269,0.634,0.6v7.2C32.321,29.732,32.037,30,31.687,30z"/>
	<path id="XMLID_10_" style="fill:#2B3789;" d="M7.604,30H0.633c-0.35,0-0.634-0.269-0.634-0.6v-7.2c0-0.331,0.284-0.6,0.634-0.6
		h6.971c0.35,0,0.634,0.269,0.634,0.6v7.2C8.238,29.732,7.954,30,7.604,30z"/>
	<path id="XMLID_9_" style="fill:#717588;" d="M21.547,25.2H10.773c-0.35,0-0.634-0.268-0.634-0.6s0.283-0.6,0.634-0.6h10.774
		c0.35,0,0.634,0.268,0.634,0.6S21.897,25.2,21.547,25.2z"/>
	<path id="XMLID_8_" style="fill:#7F8499;" d="M14.575,27.6h-3.803c-0.35,0-0.634-0.268-0.634-0.6c0-0.332,0.283-0.6,0.634-0.6
		h3.803c0.35,0,0.634,0.268,0.634,0.6C15.209,27.332,14.926,27.6,14.575,27.6z"/>
	<g>
		<path id="XMLID_7_" style="fill:#FFFFFF;" d="M4.118,27.001c-0.35,0-0.634-0.268-0.634-0.6c0-0.332,0.283-0.6,0.634-0.6
			c0.524,0,0.951-0.403,0.951-0.9c0-0.496-0.426-0.9-0.951-0.9c-0.524,0-0.951,0.403-0.951,0.9c0,0.331-0.283,0.6-0.634,0.6
			s-0.634-0.268-0.634-0.6c0-1.158,0.995-2.1,2.218-2.1s2.218,0.942,2.218,2.1C6.337,26.058,5.341,27.001,4.118,27.001z"/>
		<path id="XMLID_6_" style="fill:#FFFFFF;" d="M4.125,28.8c-0.35,0-0.637-0.268-0.637-0.6c0-0.331,0.28-0.6,0.631-0.6h0.006
			c0.35,0,0.634,0.268,0.634,0.6C4.758,28.532,4.475,28.8,4.125,28.8z"/>
	</g>
	<g>
		<path id="XMLID_5_" style="fill:#D6DCEC;" d="M31.687,21.601h-3.169v3.56c0,0.827,0.711,1.501,1.585,1.501
			c0.308,0,0.608-0.085,0.867-0.246l0.254-0.158l1.096,2.504V22.2C32.321,21.869,32.037,21.601,31.687,21.601z"/>
		<path id="XMLID_4_" style="fill:#D6DCEC;" d="M31.223,16.641c-0.3-0.284-0.697-0.44-1.118-0.44c-0.875,0-1.587,0.673-1.587,1.501
			v1.5h3.169c0.35,0,0.634-0.269,0.634-0.6v-0.921L31.223,16.641z"/>
	</g>
	<path id="XMLID_3_" style="fill:#01AFDC;" d="M29.786,17.701v7.458c0,0.239,0.28,0.382,0.491,0.251l1.534-0.951l1.965,4.491
		c0.134,0.306,0.505,0.452,0.828,0.325l0.961-0.377c0.323-0.127,0.477-0.478,0.343-0.784l-1.965-4.491l1.803-0.346
		c0.248-0.047,0.34-0.337,0.161-0.507l-5.579-5.282C30.127,17.3,29.786,17.434,29.786,17.701z"/>
	<g>
		<path id="XMLID_2_" style="fill:#7F8499;" d="M27.884,16.801H17.11c-0.35,0-0.634-0.269-0.634-0.6l0,0
			c0-0.331,0.284-0.6,0.634-0.6h10.774c0.35,0,0.634,0.269,0.634,0.6l0,0C28.518,16.532,28.234,16.801,27.884,16.801z"/>
		<path id="XMLID_1_" style="fill:#7F8499;" d="M27.884,27.6H17.11c-0.35,0-0.634-0.269-0.634-0.6l0,0c0-0.331,0.284-0.6,0.634-0.6
			h10.774c0.35,0,0.634,0.269,0.634,0.6l0,0C28.518,27.332,28.234,27.6,27.884,27.6z"/>
	</g>
</g>
<g id="XMLID_38_">
</g>
<g id="XMLID_39_">
</g>
<g id="XMLID_40_">
</g>
<g id="XMLID_41_">
</g>
<g id="XMLID_42_">
</g>
<g id="XMLID_43_">
</g>
</svg>
