<?xml version="1.0" encoding="utf-8"?>
<!-- Generator: Adobe Illustrator 19.0.0, SVG Export Plug-In . SVG Version: 6.00 Build 0)  -->
<svg version="1.1" id="Layer_1" xmlns="http://www.w3.org/2000/svg" xmlns:xlink="http://www.w3.org/1999/xlink" x="0px" y="0px"
	 viewBox="0 0 261 71.5" style="enable-background:new 0 0 261 71.5;" xml:space="preserve">
<style type="text/css">
	.st0{fill:#273C89;}
	.st1{fill:#939598;}
	.st2{fill:#00B0DF;}
</style>
<g>
	<path id="XMLID_58_" class="st0" d="M38.2,53.4c-0.7,0-1.4-0.3-1.9-0.8c-0.6-0.6-0.8-1.2-0.8-1.9V31H5.9v19.7
		c0,0.7-0.3,1.4-0.7,1.9c-0.6,0.6-1.2,0.8-2,0.8c-0.7,0-1.4-0.3-1.9-0.8c-0.6-0.6-0.8-1.2-0.8-1.9V7c0-0.8,0.3-1.5,0.8-2
		c0.6-0.6,1.2-0.7,1.9-0.7c0.8,0,1.5,0.3,2,0.8c0.6,0.6,0.7,1.2,0.7,2v19.1h29.7V7c0-0.8,0.3-1.5,0.8-2c0.6-0.6,1.2-0.7,1.9-0.7
		c0.8,0,1.5,0.3,2,0.8c0.6,0.6,0.8,1.2,0.8,2v43.7c0,0.7-0.3,1.4-0.7,1.9C39.7,53,39,53.4,38.2,53.4z"/>
	<path id="XMLID_57_" class="st0" d="M78.3,27.1c-1.6-2.7-3.7-4.9-6.4-6.4c-2.7-1.6-5.7-2.3-9-2.3c-3.3,0-6.3,0.7-9,2.3
		c-2.7,1.6-4.8,3.7-6.4,6.4s-2.3,5.7-2.3,9c0,3.3,0.7,6.3,2.2,9c1.5,2.7,3.6,4.8,6.2,6.4s5.5,2.3,8.7,2.3c2.8,0,5.3-0.6,7.5-1.8
		c2-1,3.7-2.4,5.1-4.1v2.8c0,0.8,0.3,1.5,0.8,1.9c0.6,0.5,1.2,0.7,1.9,0.7c0.8,0,1.5-0.3,2-0.8c0.6-0.6,0.7-1.2,0.7-1.9V36
		C80.5,32.6,79.9,29.6,78.3,27.1z M73.6,42.5c-1.1,2-2.6,3.5-4.4,4.5c-1.8,1-4,1.7-6.3,1.7s-4.4-0.6-6.3-1.7
		c-1.9-1.1-3.4-2.6-4.4-4.5c-1.1-1.9-1.6-4.1-1.6-6.5c0-2.4,0.6-4.6,1.6-6.5c1.1-1.9,2.6-3.4,4.4-4.5c1.8-1.1,4-1.7,6.3-1.7
		s4.4,0.6,6.3,1.7c1.8,1.1,3.3,2.7,4.4,4.5c1.1,1.9,1.6,4.1,1.6,6.5C75.2,38.4,74.7,40.5,73.6,42.5z"/>
	<path id="XMLID_56_" class="st0" d="M161.5,27.1c-1.6-2.7-3.7-4.9-6.4-6.4c-2.7-1.6-5.7-2.3-9-2.3c-3.4,0-6.3,0.7-9,2.3
		c-2.7,1.6-4.8,3.7-6.4,6.4c-1.6,2.7-2.3,5.7-2.3,9c0,3.3,0.7,6.3,2.2,9c1.5,2.7,3.6,4.8,6.2,6.4c2.6,1.6,5.5,2.3,8.7,2.3
		c2.8,0,5.3-0.6,7.5-1.8c2-1,3.7-2.4,5.1-4.1v2.8c0,0.8,0.3,1.5,0.8,1.9c0.6,0.5,1.2,0.7,1.9,0.7c0.8,0,1.5-0.3,2-0.8
		c0.6-0.6,0.7-1.2,0.7-1.9V36C163.8,32.6,162.9,29.6,161.5,27.1z M156.7,42.5c-1.1,1.9-2.6,3.4-4.4,4.5c-1.8,1.1-4,1.7-6.3,1.7
		c-2.3,0-4.4-0.6-6.3-1.7c-1.8-1.1-3.4-2.6-4.4-4.5c-1.1-1.9-1.6-4.1-1.6-6.5c0-2.4,0.6-4.6,1.6-6.5c1.1-1.9,2.6-3.4,4.4-4.5
		c1.8-1.1,4-1.7,6.3-1.7c2.3,0,4.4,0.6,6.3,1.7c1.8,1.1,3.3,2.7,4.4,4.5c1.1,1.9,1.6,4.1,1.6,6.5C158.3,38.4,157.8,40.5,156.7,42.5z
		"/>
	<path id="XMLID_55_" class="st0" d="M201,27.1c-1.6-2.7-3.7-4.9-6.4-6.4c-2.7-1.6-5.7-2.3-9-2.3c-3.4,0-6.3,0.7-9,2.3
		c-2.7,1.6-4.8,3.7-6.4,6.4c-1.6,2.7-2.3,5.7-2.3,9c0,3.3,0.7,6.3,2.2,9c1.5,2.7,3.6,4.8,6.2,6.4s5.5,2.3,8.7,2.3
		c2.8,0,5.3-0.6,7.5-1.8c2-1,3.7-2.4,5.1-4.1v2.8c0,0.8,0.3,1.5,0.8,1.9c0.6,0.5,1.2,0.7,1.9,0.7c0.8,0,1.5-0.3,2-0.8
		c0.6-0.6,0.7-1.2,0.7-1.9V36C203.3,32.6,202.6,29.6,201,27.1z M196.3,42.5c-1.1,1.9-2.6,3.4-4.4,4.5c-1.8,1.1-4,1.7-6.3,1.7
		s-4.4-0.6-6.3-1.7c-1.9-1.1-3.4-2.6-4.4-4.5c-1.1-1.9-1.6-4.1-1.6-6.5c0-2.4,0.6-4.6,1.6-6.5c1.1-1.9,2.6-3.4,4.4-4.5
		c1.8-1.1,4-1.7,6.3-1.7s4.4,0.6,6.3,1.7c1.8,1.1,3.3,2.7,4.4,4.5c1.1,1.9,1.6,4.1,1.6,6.5C197.9,38.4,197.4,40.5,196.3,42.5z"/>
	<path id="XMLID_54_" class="st0" d="M224.4,53.4h-1.3c-2.2,0-4.3-0.6-6.1-1.7c-1.8-1.1-3.2-2.6-4.3-4.4c-1-1.8-1.5-4-1.5-6.3V24.8
		h-3.6c-0.7,0-1.4-0.3-1.8-0.6c-0.5-0.5-0.6-1-0.6-1.7s0.3-1.3,0.6-1.8c0.5-0.5,1.1-0.6,1.8-0.6h3.7v-9.2c0-0.8,0.3-1.5,0.7-1.9
		c0.5-0.6,1.2-0.8,1.9-0.8c0.8,0,1.5,0.3,2,0.7c0.6,0.6,0.7,1.2,0.7,2v9.2h6.8c0.7,0,1.4,0.3,1.8,0.6c0.5,0.5,0.6,1,0.6,1.8
		c0,0.6-0.3,1.2-0.6,1.7c-0.5,0.5-1.1,0.6-1.8,0.6h-6.8v16.3c0,2,0.6,3.7,1.8,5c1.2,1.3,2.7,1.9,4.5,1.9h1.7c0.7,0,1.4,0.3,1.8,0.8
		l0,0c0.5,0.6,0.7,1.2,0.7,1.9c0,0.7-0.3,1.4-0.8,1.9C226,53,225.2,53.4,224.4,53.4z"/>
	<g id="XMLID_49_">
		<path id="XMLID_53_" class="st1" d="M230,52.8c-0.2-0.2-0.4-0.5-0.4-0.8c0-0.3,0.1-0.6,0.4-0.8c0.2-0.2,0.5-0.4,0.8-0.4
			s0.6,0.1,0.8,0.4c0.3,0.3,0.4,0.5,0.4,0.8c0,0.3-0.1,0.6-0.4,0.8c-0.3,0.3-0.5,0.4-0.8,0.4C230.6,53,230.3,52.9,230,52.8z"/>
		<path id="XMLID_52_" class="st1" d="M244.6,41.1c0.9,0.6,1.8,1.3,2.3,2.3c0.6,0.9,0.8,2,0.8,3.2s-0.3,2.2-0.8,3.2
			c-0.6,0.9-1.3,1.8-2.3,2.3c-0.9,0.6-2,0.8-3.2,0.8c-1.1,0-2-0.2-2.9-0.6c-0.8-0.5-1.6-1.1-2-1.8v7c0,0.2-0.1,0.4-0.2,0.5
			s-0.3,0.2-0.5,0.2s-0.4-0.1-0.5-0.2c-0.1-0.1-0.2-0.3-0.2-0.5V46.5l0,0c0-1.2,0.3-2.2,0.8-3.1c0.6-0.9,1.3-1.7,2.3-2.2
			c0.9-0.6,2-0.8,3.1-0.8C242.6,40.3,243.7,40.5,244.6,41.1z M243.9,50.9c0.7-0.5,1.4-1,1.8-1.8c0.5-0.7,0.6-1.7,0.6-2.6
			s-0.2-1.8-0.6-2.6c-0.5-0.7-1-1.4-1.8-1.8c-0.7-0.5-1.6-0.6-2.5-0.6c-0.9,0-1.8,0.2-2.5,0.6c-0.7,0.5-1.4,1-1.8,1.8
			c-0.5,0.7-0.6,1.7-0.6,2.6s0.2,1.8,0.6,2.6c0.5,0.7,1,1.4,1.8,1.8c0.7,0.5,1.6,0.6,2.5,0.6C242.3,51.5,243.2,51.4,243.9,50.9z"/>
		<path id="XMLID_50_" class="st1" d="M260.5,52.2c0,0.2-0.1,0.4-0.3,0.5c-0.2,0.1-0.3,0.2-0.4,0.2c-0.2,0-0.4-0.1-0.5-0.3l-4.9-6
			l-2.1,1.9v3.6c0,0.2-0.1,0.4-0.2,0.5s-0.3,0.2-0.5,0.2s-0.4-0.1-0.5-0.2c-0.1-0.1-0.2-0.3-0.2-0.5V35.9c0-0.2,0.1-0.4,0.2-0.5
			s0.3-0.2,0.5-0.2s0.4,0.1,0.5,0.2c0.1,0.1,0.2,0.3,0.2,0.5v11l7-6.4c0.2-0.1,0.3-0.2,0.5-0.2s0.3,0.1,0.5,0.2
			c0.1,0.1,0.2,0.3,0.2,0.5c0,0.2-0.1,0.3-0.2,0.5l-4.8,4.3l4.9,6C260.4,51.9,260.5,51.9,260.5,52.2z"/>
	</g>
	<g>
		<circle id="XMLID_40_" class="st0" cx="108.1" cy="7.4" r="3.8"/>
		<circle id="XMLID_39_" class="st0" cx="97.2" cy="7.4" r="3.8"/>
		<path class="st2" d="M123.8,45.2c-3.3,0-6,2.7-6,6.1s2.7,6.1,6,6.1s6-2.7,6-6.1S127.1,45.2,123.8,45.2z M123.8,54.4
			c-1.7,0-3.1-1.4-3.1-3.2s1.4-3.2,3.1-3.2s3.1,1.4,3.1,3.2S125.6,54.4,123.8,54.4z"/>
		<path id="XMLID_36_" class="st0" d="M119.7,57c-0.2,0.5-0.4,1-0.7,1.7c-0.3,0.6-0.7,1.3-1.1,1.9c-0.5,0.6-1,1.2-1.7,1.7
			s-1.4,0.8-2.3,1c-0.5,0.1-0.9,0.2-1.4,0.2c-0.3,0-0.5,0-0.8,0h-0.1l0,0h-0.1c-0.1,0-0.3,0-0.4,0c-0.2,0-0.4-0.1-0.6-0.1
			c-0.2-0.1-0.4-0.1-0.6-0.2c-0.4-0.2-0.8-0.3-1.1-0.6c-0.7-0.5-1.2-1.2-1.7-2.1c-0.5-0.8-0.8-1.8-1-2.8c-0.5-2-0.6-4-0.6-5.7
			c0-1.4,0.1-2.7,0.1-3.6c6.9-0.6,13.3-6.6,15.8-16.7l0,0c0.3-1.3,1.5-6.3,1.8-8.7l-5.4-1.8c0,3.3-1.1,7.6-1.4,8.7l0,0
			c-1.2,4.2-5,13.3-12,13.3h-3.7c-7,0-10.6-8.6-11.9-12.9c-0.2-1-1.5-6.5-1.7-8.6l-5.1,1.4c0.3,2.6,1.6,8.9,1.6,8.9l0,0
			c2.6,10.2,9.7,16.6,16.9,16.6c0,1-0.1,2.3,0,3.7c0.1,2,0.3,4.3,1,6.8c0.3,1.3,0.8,2.6,1.5,3.8c0.7,1.3,1.7,2.5,3.1,3.5
			c0.7,0.5,1.4,0.8,2.2,1.1c0.4,0.1,0.8,0.2,1.2,0.3c0.4,0.1,0.8,0.1,1.2,0.2c0.2,0,0.4,0,0.5,0h0.1h0.1l0,0h0.2l0,0h0.3
			c0.3,0,0.7-0.1,1-0.1c0.7-0.1,1.4-0.2,2-0.4c1.3-0.4,2.6-1.1,3.6-1.9c1-0.8,1.8-1.8,2.4-2.7c0.6-0.9,1-1.8,1.3-2.5
			c0.3-0.8,0.6-1.4,0.7-2c0-0.1,0.1-0.2,0.1-0.3c-1.2-0.1-2.3-0.6-3.2-1.3C119.9,56.8,119.8,56.9,119.7,57z"/>
		<path id="XMLID_35_" class="st2" d="M86.4,21.1c-0.2-1.5-0.2-2.2-0.2-3.4c0-3,0.7-4.8,2.5-6.2c1.3-1.3,3-1.7,4.7-2
			C93,9,92.8,8.2,92.8,7.5c0-0.6,0.1-1.2,0.3-1.7c-2.1,0.1-4.7,0.9-7,2.9c-2.5,2.2-3.7,5.1-3.7,9c0,1.5,0,2.6,0.3,4.5L86.4,21.1z"/>
		<path id="XMLID_34_" class="st2" d="M116.4,11.6c1.8,1.5,2.5,3.3,2.5,6.2c0,1.1,0,1.8-0.2,3.1l3.6,1.1c0.2-1.8,0.3-2.9,0.3-4.3
			c0-4-1.1-7-3.7-9c-2.2-1.9-4.7-2.7-6.8-2.9c0.2,0.5,0.3,1.1,0.3,1.7c0,0.7-0.2,1.4-0.5,2.1C113.5,9.7,114.9,10.4,116.4,11.6z"/>
	</g>
</g>
</svg>
