<?xml version="1.0" encoding="utf-8"?>
<!-- Generator: Adobe Illustrator 19.0.0, SVG Export Plug-In . SVG Version: 6.00 Build 0)  -->
<svg version="1.1" id="Layer_1" xmlns="http://www.w3.org/2000/svg" xmlns:xlink="http://www.w3.org/1999/xlink" x="0px" y="0px"
	 viewBox="0 0 27.4 36" style="enable-background:new 0 0 27.4 36;" xml:space="preserve">
<style type="text/css">
	.st0{fill:#00AFDD;}
	.st1{fill:#2C3589;}
</style>
<g>
	<path class="st0" d="M26.5,26.4h-5.8c-1.6,0-2.9,1.3-2.9,2.9v5.8L26.5,26.4z M26.5,26.4"/>
	<path class="st0" d="M15.3,15v-2c0-0.3,0.2-0.5,0.5-0.5h2c0.3,0,0.5-0.2,0.5-0.5V9.8c0-0.3-0.2-0.5-0.5-0.5h-2
		c-0.3,0-0.5-0.2-0.5-0.5v-2c0-0.3-0.2-0.5-0.5-0.5h-2.3c-0.3,0-0.5,0.2-0.5,0.5v2c0,0.3-0.2,0.5-0.5,0.5h-2c-0.3,0-0.5,0.2-0.5,0.5
		v2.3c0,0.3,0.2,0.5,0.5,0.5h2c0.3,0,0.5,0.2,0.5,0.5v2c0,0.3,0.2,0.5,0.5,0.5h2.3C15.1,15.4,15.3,15.2,15.3,15L15.3,15z M15.3,15"
		/>
	<path class="st1" d="M27.4,3.8c0-2.1-1.7-3.8-3.8-3.8H3.8C1.7,0,0,1.7,0,3.8v28.4C0,34.3,1.7,36,3.8,36h13.9c0.2,0,0.5-0.1,0.6-0.3
		l8.7-8.7c0.2-0.2,0.3-0.4,0.3-0.6V3.8z M1.8,32.2V3.8c0-1.1,0.9-2,2-2h19.8c1.1,0,2,0.9,2,2v21.7h-4.9c-2.1,0-3.8,1.7-3.8,3.8v4.9
		h-13C2.7,34.2,1.8,33.3,1.8,32.2L1.8,32.2z M18.6,32.9v-3.7c0-1.1,0.9-2,2-2h3.7C23.7,27.9,19.2,32.3,18.6,32.9L18.6,32.9z
		 M18.6,32.9"/>
	<path class="st1" d="M5.4,21.8H22c0.5,0,0.9-0.4,0.9-0.9c0-0.5-0.4-0.9-0.9-0.9H5.4c-0.5,0-0.9,0.4-0.9,0.9
		C4.5,21.4,4.9,21.8,5.4,21.8L5.4,21.8z M5.4,21.8"/>
	<path class="st1" d="M5.4,26.2h9.2c0.5,0,0.9-0.4,0.9-0.9s-0.4-0.9-0.9-0.9H5.4c-0.5,0-0.9,0.4-0.9,0.9S4.9,26.2,5.4,26.2L5.4,26.2
		z M5.4,26.2"/>
	<path class="st1" d="M14.5,28.9H5.4c-0.5,0-0.9,0.4-0.9,0.9c0,0.5,0.4,0.9,0.9,0.9h9.2c0.5,0,0.9-0.4,0.9-0.9
		C15.4,29.3,15,28.9,14.5,28.9L14.5,28.9z M14.5,28.9"/>
</g>
</svg>
