<?xml version="1.0" encoding="utf-8"?>
<!-- Generator: Adobe Illustrator 22.0.1, SVG Export Plug-In . SVG Version: 6.00 Build 0)  -->
<svg version="1.1" id="Layer_1" xmlns="http://www.w3.org/2000/svg" xmlns:xlink="http://www.w3.org/1999/xlink" x="0px" y="0px"
	 viewBox="0 0 102.6 83.4" style="enable-background:new 0 0 102.6 83.4;" xml:space="preserve">
<style type="text/css">
	.st0{fill:#CEE7F8;}
	.st1{fill:#F3F3F4;}
	.st2{fill:#00B0DE;}
	.st3{fill:#263D88;}
</style>
<g>
	<circle class="st0" cx="61.8" cy="42.5" r="40.8"/>
	<g>
		<g>
			<path class="st1" d="M88.9,10.9H73.2c8.9,6,14.7,16.2,14.7,27.7S82,60.3,73.2,66.3h16.5c2.2,0,4-1.8,4-4V15.7
				C93.7,13,91.5,10.9,88.9,10.9z"/>
			<path class="st1" d="M20.8,38.6c0-11.5,5.8-21.7,14.7-27.7H6.7c-2.6,0-4.8,2.1-4.8,4.8v46.7c0,2.2,1.8,4,4,4h29.6
				C26.6,60.3,20.8,50.1,20.8,38.6z"/>
		</g>
		<path class="st0" d="M87.9,38.6c0-11.5-5.8-21.7-14.7-27.7c-5.4-3.7-11.9-5.8-18.9-5.8s-13.5,2.1-18.9,5.8
			c-8.9,6-14.7,16.2-14.7,27.7s5.8,21.7,14.7,27.7c5.4,3.7,11.9,5.8,18.9,5.8s13.5-2.1,18.9-5.8C82,60.3,87.9,50.1,87.9,38.6z
			 M29.4,38.6c0-13.8,11.2-24.9,24.9-24.9s24.9,11.2,24.9,24.9S68.1,63.5,54.3,63.5S29.4,52.4,29.4,38.6z"/>
		<circle class="st2" cx="54.3" cy="38.6" r="24.9"/>
		<path class="st0" d="M25.2,3.9c0-1.1-0.9-2-2-2H11.7c-1.1,0-2,0.9-2,2v7h15.6V3.9z"/>
		<g>
			<path class="st3" d="M5.9,68.2h29.1c5.6,3.7,12.2,5.8,19.4,5.8s13.8-2.1,19.4-5.8h15.9c3.2,0,5.9-2.6,5.9-5.9V15.7
				c0-3.7-3-6.7-6.7-6.7H73.7c-5.6-3.7-12.2-5.8-19.4-5.8S40.5,5.4,34.9,9h-7.9V3.9c0-2.1-1.7-3.9-3.9-3.9H11.7
				C9.5,0,7.8,1.7,7.8,3.9V9H6.7C3,9,0,12,0,15.7v46.7C0,65.6,2.6,68.2,5.9,68.2z M88.9,12.8c1.6,0,2.9,1.3,2.9,2.9v46.7
				c0,1.2-1,2.1-2.1,2.1H78.5c6.9-6.5,11.2-15.7,11.2-25.8s-4.3-19.4-11.2-25.8C78.5,12.8,88.9,12.8,88.9,12.8z M36.1,12.8
				c2.1-1.5,4.5-2.8,7-3.7C46.6,7.7,50.4,7,54.3,7S62.1,7.7,65.6,9c2.5,1,4.8,2.2,7,3.7C80.7,18.5,86,28,86,38.6
				s-5.3,20.1-13.4,25.8c-2.1,1.5-4.5,2.8-7,3.7c-3.5,1.3-7.3,2.1-11.3,2.1s-7.8-0.7-11.3-2.1c-2.5-1-4.8-2.2-7-3.7
				C28,58.7,22.7,49.3,22.7,38.6S28,18.5,36.1,12.8z M11.5,3.9c0-0.1,0.1-0.2,0.2-0.2h11.5c0.1,0,0.2,0.1,0.2,0.2V9H11.5V3.9z
				 M3.7,15.7c0-1.6,1.3-2.9,2.9-2.9h23.5C23.3,19.2,19,28.4,19,38.6S23.3,58,30.2,64.5h-17V49.4c0-1-0.8-1.9-1.9-1.9
				s-1.9,0.8-1.9,1.9v15.1H5.9c-1.2,0-2.1-1-2.1-2.1V15.7z"/>
			<path class="st3" d="M47.3,64.5c2.3,0.6,4.6,0.9,7.1,0.9s4.8-0.3,7.1-0.9c11.4-3.1,19.7-13.5,19.7-25.8c0-6.3-2.2-12.4-6.3-17.2
				c-0.7-0.8-1.8-0.9-2.6-0.2c-0.8,0.7-0.9,1.8-0.2,2.6c3.5,4.1,5.4,9.4,5.4,14.8c0,12.7-10.3,23.1-23.1,23.1S31.3,51.3,31.3,38.6
				s10.3-23.1,23.1-23.1c1.5,0,3.1,0.2,4.5,0.4c1,0.2,2-0.5,2.2-1.5c0.1-0.7-0.1-1.3-0.6-1.8c-0.2-0.2-0.5-0.4-0.9-0.4
				c-1.7-0.3-3.5-0.5-5.3-0.5c-2.4,0-4.8,0.3-7.1,0.9c-11.4,3.1-19.7,13.5-19.7,25.8C27.5,50.9,35.9,61.4,47.3,64.5z"/>
			<path class="st3" d="M66.3,18.8c0.4,0.3,0.8,0.5,1.3,0.5c0.5,0,1-0.2,1.4-0.6c0.7-0.7,0.7-1.9-0.1-2.6l-0.1-0.1
				c-0.7-0.7-1.9-0.7-2.6,0.1C65.5,16.9,65.5,18.1,66.3,18.8L66.3,18.8z"/>
			<path class="st3" d="M9.6,42.6c0,0.1,0.1,0.2,0.2,0.3c0.1,0.1,0.1,0.2,0.2,0.3c0.1,0.1,0.2,0.2,0.3,0.2c0.1,0.1,0.2,0.1,0.3,0.2
				c0.1,0,0.2,0.1,0.3,0.1c0.1,0,0.2,0,0.4,0s0.2,0,0.4,0c0.1,0,0.2-0.1,0.3-0.1c0.1,0,0.2-0.1,0.3-0.2c0.1-0.1,0.2-0.1,0.3-0.2
				c0.1-0.1,0.2-0.2,0.2-0.3c0.1-0.1,0.1-0.2,0.2-0.3c0-0.1,0.1-0.2,0.1-0.3c0-0.1,0-0.2,0-0.4c0-0.1,0-0.2,0-0.4
				c0-0.1-0.1-0.2-0.1-0.3c0-0.1-0.1-0.2-0.2-0.3c-0.1-0.1-0.1-0.2-0.2-0.3c-0.1-0.1-0.2-0.2-0.3-0.2c-0.1-0.1-0.2-0.1-0.3-0.2
				c-0.1,0-0.2-0.1-0.3-0.1c-0.2,0-0.5,0-0.7,0c-0.1,0-0.2,0.1-0.3,0.1c-0.1,0-0.2,0.1-0.3,0.2c-0.1,0.1-0.2,0.1-0.3,0.2
				c-0.1,0.1-0.2,0.2-0.2,0.3c-0.1,0.1-0.1,0.2-0.2,0.3c0,0.1-0.1,0.2-0.1,0.3c0,0.1,0,0.2,0,0.4c0,0.1,0,0.2,0,0.4
				C9.5,42.4,9.5,42.5,9.6,42.6z"/>
		</g>
	</g>
</g>
</svg>
