<?xml version="1.0" encoding="utf-8"?>
<!-- Generator: Adobe Illustrator 21.1.0, SVG Export Plug-In . SVG Version: 6.00 Build 0)  -->
<svg version="1.1" id="Layer_1" xmlns="http://www.w3.org/2000/svg" xmlns:xlink="http://www.w3.org/1999/xlink" x="0px" y="0px"
	 viewBox="0 0 100 25.5" style="enable-background:new 0 0 100 25.5;" xml:space="preserve">
<style type="text/css">
	.st0{fill:#24B34B;}
	.st1{fill:#FFFFFF;}
</style>
<g>
	<path class="st0" d="M87.3,25.5H12.7C5.7,25.5,0,19.8,0,12.7v0C0,5.7,5.7,0,12.7,0l74.5,0c7,0,12.7,5.7,12.7,12.7v0
		C100,19.8,94.3,25.5,87.3,25.5z"/>
	<g>
		<g>
			<path class="st1" d="M27.8,7.7l2.7,8.4l2.7-8.4h2.9l-3.9,11.1h-3.5L25,7.7H27.8z"/>
			<path class="st1" d="M39.9,9.8v2.3h3.8v2h-3.8v2.5h4.2v2.2h-6.9V7.7h6.9v2.1H39.9z"/>
			<path class="st1" d="M51.4,18.9L49,14.6h-0.6v4.2h-2.7V7.7h4.6c0.9,0,1.6,0.2,2.2,0.5c0.6,0.3,1.1,0.7,1.4,1.3
				c0.3,0.5,0.5,1.1,0.5,1.8c0,0.8-0.2,1.5-0.7,2.1c-0.4,0.6-1.1,1-1.9,1.2l2.6,4.4H51.4z M48.4,12.8h1.7c0.5,0,0.9-0.1,1.2-0.4
				s0.4-0.6,0.4-1c0-0.4-0.1-0.8-0.4-1C51,10.1,50.6,10,50.1,10h-1.7V12.8z"/>
			<path class="st1" d="M58.4,7.7v11.1h-2.7V7.7H58.4z"/>
			<path class="st1" d="M67.5,7.7v2.1H63v2.4h3.5v2H63v4.5h-2.7V7.7H67.5z"/>
			<path class="st1" d="M71.6,7.7v11.1h-2.7V7.7H71.6z"/>
			<path class="st1" d="M76.2,9.8v2.3H80v2h-3.8v2.5h4.2v2.2h-6.9V7.7h6.9v2.1H76.2z"/>
			<path class="st1" d="M91.3,16.2c-0.5,0.8-1.1,1.5-2,2c-0.9,0.5-1.9,0.7-3.1,0.7H82V7.7h4.2c1.2,0,2.2,0.2,3.1,0.7
				c0.9,0.5,1.5,1.1,2,2c0.5,0.8,0.7,1.8,0.7,2.9C92,14.3,91.7,15.3,91.3,16.2z M88.4,15.6c0.6-0.6,0.9-1.3,0.9-2.3
				c0-1-0.3-1.8-0.9-2.3c-0.6-0.6-1.4-0.8-2.5-0.8h-1.3v6.4h1.3C87,16.4,87.8,16.2,88.4,15.6z"/>
		</g>
		<path class="st1" d="M23.1,8.2l0-0.5l-0.5-0.1c-2-0.2-3.7-0.9-4.7-1.5c-1.2-0.6-1.9-1.2-1.9-1.2l-0.4-0.3l-0.4,0.3
			c0,0-0.7,0.6-1.9,1.2c-1.1,0.6-2.8,1.3-4.7,1.5L8,7.7l0,0.5c0,0.1-0.1,2.3,0.8,4.9c0.5,1.6,1.2,3,2.1,4.2c1.2,1.5,2.6,2.7,4.4,3.5
			l0.3,0.1l0.3-0.1c1.8-0.8,3.2-2,4.4-3.5c0.9-1.2,1.6-2.6,2.1-4.2C23.2,10.4,23.1,8.3,23.1,8.2z M14.7,16.5L11.2,13l1.4-1.4
			l2.1,2.1l4.6-4.6l1.4,1.4L14.7,16.5z"/>
	</g>
</g>
</svg>
